<mxfile host="app.diagrams.net" modified="2025-05-11T18:35:46.122Z" agent="Mozilla/5.0 (Macintosh; Intel Mac OS X 10_15_7) AppleWebKit/537.36 (KHTML, like Gecko) Chrome/135.0.0.0 Safari/537.36" etag="ShiKKjxCYDQxYDlBkZ1U" version="24.4.4" type="device">
  <diagram name="Page-1" id="GG28bK5t-t6phVcBLP9K">
    <mxGraphModel dx="1434" dy="795" grid="1" gridSize="10" guides="1" tooltips="1" connect="1" arrows="1" fold="1" page="1" pageScale="1" pageWidth="850" pageHeight="1100" math="0" shadow="0">
      <root>
        <mxCell id="0" />
        <mxCell id="1" parent="0" />
        <mxCell id="h_Cy0vLRAMEumu5nP5Wx-12" style="edgeStyle=orthogonalEdgeStyle;rounded=0;orthogonalLoop=1;jettySize=auto;html=1;exitX=1;exitY=0.5;exitDx=0;exitDy=0;entryX=0;entryY=0.5;entryDx=0;entryDy=0;" edge="1" parent="1" source="h_Cy0vLRAMEumu5nP5Wx-1" target="h_Cy0vLRAMEumu5nP5Wx-3">
          <mxGeometry relative="1" as="geometry" />
        </mxCell>
        <mxCell id="h_Cy0vLRAMEumu5nP5Wx-1" value="Интерфейс командной строки" style="whiteSpace=wrap;html=1;aspect=fixed;" vertex="1" parent="1">
          <mxGeometry x="140" y="240" width="80" height="80" as="geometry" />
        </mxCell>
        <mxCell id="h_Cy0vLRAMEumu5nP5Wx-14" style="edgeStyle=orthogonalEdgeStyle;rounded=0;orthogonalLoop=1;jettySize=auto;html=1;exitX=1;exitY=0.5;exitDx=0;exitDy=0;entryX=0;entryY=0.5;entryDx=0;entryDy=0;" edge="1" parent="1" source="h_Cy0vLRAMEumu5nP5Wx-2" target="h_Cy0vLRAMEumu5nP5Wx-5">
          <mxGeometry relative="1" as="geometry" />
        </mxCell>
        <mxCell id="h_Cy0vLRAMEumu5nP5Wx-2" value="&lt;font style=&quot;font-size: 11px;&quot;&gt;Модуль построения&amp;nbsp;&lt;/font&gt;&lt;div&gt;&lt;font style=&quot;font-size: 11px;&quot;&gt;IR&lt;/font&gt;&lt;/div&gt;" style="whiteSpace=wrap;html=1;aspect=fixed;" vertex="1" parent="1">
          <mxGeometry x="240" y="140" width="80" height="80" as="geometry" />
        </mxCell>
        <mxCell id="h_Cy0vLRAMEumu5nP5Wx-15" style="edgeStyle=orthogonalEdgeStyle;rounded=0;orthogonalLoop=1;jettySize=auto;html=1;exitX=1;exitY=0.5;exitDx=0;exitDy=0;entryX=0;entryY=0.5;entryDx=0;entryDy=0;" edge="1" parent="1" source="h_Cy0vLRAMEumu5nP5Wx-3" target="h_Cy0vLRAMEumu5nP5Wx-4">
          <mxGeometry relative="1" as="geometry" />
        </mxCell>
        <mxCell id="h_Cy0vLRAMEumu5nP5Wx-17" style="edgeStyle=orthogonalEdgeStyle;rounded=0;orthogonalLoop=1;jettySize=auto;html=1;exitX=1;exitY=0.75;exitDx=0;exitDy=0;entryX=0;entryY=0.5;entryDx=0;entryDy=0;" edge="1" parent="1" target="h_Cy0vLRAMEumu5nP5Wx-8">
          <mxGeometry relative="1" as="geometry">
            <mxPoint x="320" y="280" as="sourcePoint" />
            <Array as="points">
              <mxPoint x="320" y="290" />
              <mxPoint x="353" y="290" />
              <mxPoint x="353" y="380" />
            </Array>
          </mxGeometry>
        </mxCell>
        <mxCell id="h_Cy0vLRAMEumu5nP5Wx-24" style="edgeStyle=orthogonalEdgeStyle;rounded=0;orthogonalLoop=1;jettySize=auto;html=1;exitX=0.5;exitY=0;exitDx=0;exitDy=0;entryX=0.5;entryY=1;entryDx=0;entryDy=0;" edge="1" parent="1" source="h_Cy0vLRAMEumu5nP5Wx-3" target="h_Cy0vLRAMEumu5nP5Wx-2">
          <mxGeometry relative="1" as="geometry" />
        </mxCell>
        <mxCell id="h_Cy0vLRAMEumu5nP5Wx-25" style="edgeStyle=orthogonalEdgeStyle;rounded=0;orthogonalLoop=1;jettySize=auto;html=1;exitX=0.5;exitY=1;exitDx=0;exitDy=0;entryX=0.5;entryY=0;entryDx=0;entryDy=0;" edge="1" parent="1" source="h_Cy0vLRAMEumu5nP5Wx-3" target="h_Cy0vLRAMEumu5nP5Wx-6">
          <mxGeometry relative="1" as="geometry" />
        </mxCell>
        <mxCell id="h_Cy0vLRAMEumu5nP5Wx-3" value="Ядро транслятора" style="whiteSpace=wrap;html=1;aspect=fixed;" vertex="1" parent="1">
          <mxGeometry x="240" y="240" width="80" height="80" as="geometry" />
        </mxCell>
        <mxCell id="h_Cy0vLRAMEumu5nP5Wx-20" style="edgeStyle=orthogonalEdgeStyle;rounded=0;orthogonalLoop=1;jettySize=auto;html=1;exitX=1;exitY=0.5;exitDx=0;exitDy=0;entryX=0;entryY=0.5;entryDx=0;entryDy=0;" edge="1" parent="1" source="h_Cy0vLRAMEumu5nP5Wx-4" target="h_Cy0vLRAMEumu5nP5Wx-9">
          <mxGeometry relative="1" as="geometry" />
        </mxCell>
        <mxCell id="h_Cy0vLRAMEumu5nP5Wx-21" style="edgeStyle=orthogonalEdgeStyle;rounded=0;orthogonalLoop=1;jettySize=auto;html=1;exitX=1;exitY=0.75;exitDx=0;exitDy=0;entryX=0;entryY=0.5;entryDx=0;entryDy=0;" edge="1" parent="1" target="h_Cy0vLRAMEumu5nP5Wx-11">
          <mxGeometry relative="1" as="geometry">
            <mxPoint x="465" y="290" as="sourcePoint" />
            <Array as="points">
              <mxPoint x="480" y="290" />
              <mxPoint x="480" y="370" />
            </Array>
          </mxGeometry>
        </mxCell>
        <mxCell id="h_Cy0vLRAMEumu5nP5Wx-23" style="edgeStyle=orthogonalEdgeStyle;rounded=0;orthogonalLoop=1;jettySize=auto;html=1;exitX=1;exitY=0.25;exitDx=0;exitDy=0;entryX=0;entryY=0.5;entryDx=0;entryDy=0;" edge="1" parent="1" target="h_Cy0vLRAMEumu5nP5Wx-22">
          <mxGeometry relative="1" as="geometry">
            <mxPoint x="465" y="270" as="sourcePoint" />
            <Array as="points">
              <mxPoint x="480" y="270" />
              <mxPoint x="480" y="190" />
            </Array>
          </mxGeometry>
        </mxCell>
        <mxCell id="h_Cy0vLRAMEumu5nP5Wx-4" value="&lt;font style=&quot;font-size: 11px;&quot;&gt;Модуль&lt;/font&gt;&lt;span style=&quot;font-size: 11px;&quot;&gt; &lt;/span&gt;&lt;font style=&quot;font-size: 10px;&quot;&gt;семантического&lt;/font&gt;&lt;span style=&quot;font-size: 11px;&quot;&gt; анализа&lt;/span&gt;" style="whiteSpace=wrap;html=1;aspect=fixed;" vertex="1" parent="1">
          <mxGeometry x="385" y="240" width="80" height="80" as="geometry" />
        </mxCell>
        <mxCell id="h_Cy0vLRAMEumu5nP5Wx-5" value="Парсер и лексер" style="whiteSpace=wrap;html=1;aspect=fixed;" vertex="1" parent="1">
          <mxGeometry x="345" y="140" width="80" height="80" as="geometry" />
        </mxCell>
        <mxCell id="h_Cy0vLRAMEumu5nP5Wx-6" value="&lt;span style=&quot;font-size: 11px;&quot;&gt;Модуль синтеза&lt;/span&gt;" style="whiteSpace=wrap;html=1;aspect=fixed;" vertex="1" parent="1">
          <mxGeometry x="240" y="340" width="80" height="80" as="geometry" />
        </mxCell>
        <mxCell id="h_Cy0vLRAMEumu5nP5Wx-8" value="&lt;span style=&quot;font-size: 11px;&quot;&gt;Транслятор&amp;nbsp;&lt;/span&gt;&lt;div&gt;&lt;span style=&quot;font-size: 11px;&quot;&gt;IR -&amp;gt; CGIR&lt;/span&gt;&lt;/div&gt;" style="whiteSpace=wrap;html=1;aspect=fixed;" vertex="1" parent="1">
          <mxGeometry x="380" y="340" width="80" height="80" as="geometry" />
        </mxCell>
        <mxCell id="h_Cy0vLRAMEumu5nP5Wx-9" value="Модуль проверки типов" style="whiteSpace=wrap;html=1;aspect=fixed;" vertex="1" parent="1">
          <mxGeometry x="500" y="240" width="80" height="80" as="geometry" />
        </mxCell>
        <mxCell id="h_Cy0vLRAMEumu5nP5Wx-11" value="&lt;font style=&quot;font-size: 11px;&quot;&gt;Модуль других &lt;font style=&quot;font-size: 11px;&quot;&gt;семантических&lt;/font&gt; проверок&lt;/font&gt;" style="whiteSpace=wrap;html=1;aspect=fixed;" vertex="1" parent="1">
          <mxGeometry x="500" y="330" width="80" height="80" as="geometry" />
        </mxCell>
        <mxCell id="h_Cy0vLRAMEumu5nP5Wx-22" value="&lt;font style=&quot;font-size: 11px;&quot;&gt;Модуль &lt;/font&gt;&lt;font style=&quot;font-size: 10px;&quot;&gt;трансформации&lt;/font&gt;&lt;font style=&quot;font-size: 11px;&quot;&gt; IR&lt;/font&gt;" style="whiteSpace=wrap;html=1;aspect=fixed;" vertex="1" parent="1">
          <mxGeometry x="500" y="150" width="80" height="80" as="geometry" />
        </mxCell>
      </root>
    </mxGraphModel>
  </diagram>
</mxfile>
